<svg width="20" height="22" viewBox="0 0 20 22" fill="none" xmlns="http://www.w3.org/2000/svg">
<path d="M5.24902 17.75C5.90405 19.4978 7.67148 20.75 9.74902 20.75C11.8265 20.75 13.594 19.4978 14.249 17.75" stroke="black" stroke-width="1.5" stroke-linecap="round"/>
<path d="M9.74902 4.75V8.75" stroke="black" stroke-width="1.5" stroke-linecap="round"/>
<path d="M16.4981 8.45957V7.75497C16.4981 3.88623 13.4764 0.75 9.74902 0.75C6.02158 0.75 2.99989 3.88623 2.99989 7.75497V8.45957C2.99989 9.3052 2.75874 10.1318 2.30682 10.8354L1.19938 12.5595C0.187844 14.1343 0.960074 16.2749 2.71938 16.7729C7.32176 18.0757 12.1763 18.0757 16.7786 16.7729C18.538 16.2749 19.3102 14.1343 18.2986 12.5595L17.1912 10.8354C16.7393 10.1318 16.4981 9.3052 16.4981 8.45957Z" stroke="black" stroke-width="1.5"/>
</svg>