<svg width="20" height="20" viewBox="0 0 20 20" fill="none" xmlns="http://www.w3.org/2000/svg">
<path d="M18.75 9.74791C18.7528 11.5347 18.2214 13.2815 17.224 14.7639C16.4014 15.9909 15.2891 16.9963 13.9856 17.6912C12.682 18.3861 11.2272 18.749 9.75 18.7479C8.27277 18.749 6.81804 18.3861 5.51444 17.6912C4.21085 16.9963 3.09858 15.9909 2.276 14.7639C1.49273 13.5963 0.993902 12.2615 0.819506 10.8664C0.645109 9.47124 0.799995 8.05467 1.27175 6.7302C1.7435 5.40573 2.519 4.21021 3.53607 3.23947C4.55314 2.26873 5.7835 1.54978 7.12851 1.14025C8.47352 0.730724 9.89577 0.642009 11.2812 0.881219C12.6667 1.12043 13.9769 1.68091 15.1067 2.51773C16.2365 3.35455 17.1546 4.44444 17.7873 5.70002C18.42 6.95559 18.7497 8.34194 18.75 9.74791Z" stroke="black" stroke-width="1.5"/>
<path d="M11.0001 6.7478C11.0001 7.4378 10.4401 7.9978 9.75008 7.9978V9.4978C10.4794 9.4978 11.1789 9.20807 11.6946 8.69235C12.2103 8.17662 12.5001 7.47715 12.5001 6.7478H11.0001ZM9.75008 7.9978C9.06008 7.9978 8.50008 7.4378 8.50008 6.7478H7.00008C7.00008 7.47715 7.28981 8.17662 7.80553 8.69235C8.32126 9.20807 9.02073 9.4978 9.75008 9.4978V7.9978ZM8.50008 6.7478C8.50008 6.0578 9.06008 5.4978 9.75008 5.4978V3.9978C9.02073 3.9978 8.32126 4.28753 7.80553 4.80326C7.28981 5.31898 7.00008 6.01846 7.00008 6.7478H8.50008ZM9.75008 5.4978C10.4401 5.4978 11.0001 6.0578 11.0001 6.7478H12.5001C12.5001 6.01846 12.2103 5.31898 11.6946 4.80326C11.1789 4.28753 10.4794 3.9978 9.75008 3.9978V5.4978ZM2.91608 15.6038L2.19708 15.3898L2.08008 15.7818L2.34708 16.0918L2.91608 15.6038ZM16.5841 15.6038L17.1541 16.0928L17.4201 15.7828L17.3031 15.3898L16.5841 15.6038ZM6.75008 13.4978H12.7501V11.9978H6.75008V13.4978ZM6.75008 11.9978C5.7271 11.9975 4.73136 12.3275 3.91101 12.9387C3.09067 13.5498 2.48954 14.4095 2.19708 15.3898L3.63508 15.8178C3.83533 15.1473 4.24665 14.5593 4.80789 14.1413C5.36912 13.7233 6.05029 13.4976 6.75008 13.4978V11.9978ZM9.75008 17.9978C8.55949 17.9992 7.38279 17.7422 6.30116 17.2446C5.21954 16.7471 4.25874 16.0208 3.48508 15.1158L2.34708 16.0918C3.26154 17.1608 4.39692 18.0198 5.67497 18.6076C6.95301 19.1954 8.34333 19.4991 9.75008 19.4978V17.9978ZM12.7501 13.4978C14.2201 13.4978 15.4651 14.4758 15.8651 15.8178L17.3031 15.3898C17.0106 14.4095 16.4095 13.5498 15.5891 12.9387C14.7688 12.3275 13.7731 11.9975 12.7501 11.9978V13.4978ZM16.0151 15.1158C15.2414 16.0208 14.2806 16.7471 13.199 17.2446C12.1174 17.7422 10.9407 17.9992 9.75008 17.9978V19.4978C11.1568 19.4991 12.5471 19.1954 13.8252 18.6076C15.1032 18.0198 16.2396 17.1618 17.1541 16.0928L16.0151 15.1158Z" fill="black"/>
</svg>