<svg width="10" height="10" viewBox="0 0 7 7" fill="none" xmlns="http://www.w3.org/2000/svg">
<path d="M5.61143 0.403481C5.72222 0.0953137 5.32953 -0.142128 5.1081 0.0991348L3.26983 2.10202C3.18859 2.19053 3.0624 2.22204 2.94909 2.18211L0.401506 1.28429C0.0946233 1.17614 -0.140782 1.56546 0.0975507 1.78698L2.07607 3.62593C2.16406 3.70771 2.19478 3.83411 2.15414 3.94716L1.23442 6.50547C1.12364 6.81363 1.51632 7.05108 1.73776 6.80981L3.57603 4.80692C3.65726 4.71842 3.78346 4.6869 3.89676 4.72684L6.44435 5.62466C6.75123 5.73281 6.98664 5.34349 6.7483 5.12197L4.76979 3.28302C4.68179 3.20123 4.65107 3.07484 4.69172 2.96179L5.61143 0.403481Z" fill="white"/>
</svg>